<?xml version="1.0" encoding="UTF-8" standalone="no"?>
<!DOCTYPE svg PUBLIC "-//W3C//DTD SVG 1.1//EN" "http://www.w3.org/Graphics/SVG/1.1/DTD/svg11.dtd">
<!-- Generated by Microsoft Visio, SVG Export Contextual (level 0) Design.svg Page-1 -->
<svg xmlns="http://www.w3.org/2000/svg" xmlns:xlink="http://www.w3.org/1999/xlink" xmlns:ev="http://www.w3.org/2001/xml-events"
		xmlns:v="http://schemas.microsoft.com/visio/2003/SVGExtensions/" width="11.6929in" height="8.26772in"
		viewBox="0 0 841.89 595.276" xml:space="preserve" color-interpolation-filters="sRGB" class="st34">
	<v:documentProperties v:langID="1033" v:metric="true" v:viewMarkup="false">
		<v:userDefs>
			<v:ud v:nameU="msvSubprocessMaster" v:prompt="" v:val="VT4(Rectangle)"/>
			<v:ud v:nameU="msvNoAutoConnect" v:val="VT0(1):26"/>
		</v:userDefs>
	</v:documentProperties>

	<style type="text/css">
	<![CDATA[
		.st1 {fill:#718bcc;stroke:none;stroke-linecap:butt;stroke-width:1.25}
		.st2 {fill:#718bcc;stroke:#385da2;stroke-linecap:butt;stroke-width:1.25}
		.st3 {fill:url(#grad8-14);stroke:#385da2;stroke-linecap:butt;stroke-width:1.25}
		.st4 {fill:url(#grad1-24);stroke:none;stroke-linecap:butt;stroke-width:1.25}
		.st5 {fill:url(#grad1-28);stroke:none;stroke-linecap:butt;stroke-width:1.25}
		.st6 {fill:url(#grad1-35);stroke:none;stroke-linecap:butt;stroke-width:1.25}
		.st7 {fill:url(#grad10-41);stroke:#385da2;stroke-linecap:butt;stroke-width:1.25}
		.st8 {fill:url(#grad10-50);stroke:#385da2;stroke-linecap:butt;stroke-width:1.25}
		.st9 {stroke:#395ea3;stroke-linecap:butt;stroke-width:1.25}
		.st10 {fill:url(#grad0-70);stroke:none;stroke-linecap:butt;stroke-width:1.25}
		.st11 {fill:url(#grad0-74);stroke:none;stroke-linecap:butt;stroke-width:1.25}
		.st12 {fill:none;stroke:#395ea3;stroke-linecap:butt;stroke-width:1.25}
		.st13 {fill:#718bcc;stroke:#395ea3;stroke-linecap:butt;stroke-width:1.25;visibility:hidden}
		.st14 {fill:#525252;font-family:Roboto;font-size:1.99999em}
		.st15 {font-size:1em}
		.st16 {fill:#708bcb}
		.st17 {fill:#385da2;font-family:Roboto;font-size:1.99999em}
		.st18 {fill:url(#grad0-219);stroke:none;stroke-linecap:butt;stroke-width:1.25}
		.st19 {fill:url(#grad0-70);stroke:#385da2;stroke-linecap:butt;stroke-width:1.25}
		.st20 {fill:url(#grad0-74);stroke:#385da2;stroke-linecap:butt;stroke-width:1.25}
		.st21 {fill:url(#grad0-232);stroke:#385da2;stroke-linecap:butt;stroke-width:1.25}
		.st22 {fill:url(#grad12-236);stroke:#385da2;stroke-linecap:butt;stroke-width:1.25}
		.st23 {fill:url(#grad12-242)}
		.st24 {stroke:#385da2;stroke-linecap:butt;stroke-width:1.25}
		.st25 {fill:url(#grad0-257);stroke:none;stroke-linecap:butt;stroke-width:1.25}
		.st26 {fill:#000000;font-family:Roboto;font-size:1.16666em}
		.st27 {marker-end:url(#mrkr4-271);stroke:#4672c4;stroke-linecap:round;stroke-linejoin:round;stroke-width:1}
		.st28 {fill:#4672c4;fill-opacity:1;stroke:#4672c4;stroke-opacity:1;stroke-width:0.28409090909091}
		.st29 {marker-end:url(#mrkr4-277);stroke:#41719c;stroke-linecap:round;stroke-linejoin:round;stroke-width:2}
		.st30 {fill:#41719c;fill-opacity:1;stroke:#41719c;stroke-opacity:1;stroke-width:0.52631578947368}
		.st31 {fill:none;stroke:none;stroke-width:0.25}
		.st32 {fill:#000000;font-family:Roboto;font-size:1.00001em}
		.st33 {fill:#4672c4;font-family:Roboto;font-size:1.00001em}
		.st34 {fill:none;fill-rule:evenodd;font-size:12px;overflow:visible;stroke-linecap:square;stroke-miterlimit:3}
	]]>
	</style>

	<defs id="Patterns_And_Gradients">
		<pattern id="grad8-14" x="0" y="0" width="1" height="1" patternContentUnits="objectBoundingBox">
			<path d="M 0 0 L 1 0 L 1 1 z" style="fill:url(#grad0-15)"/>
			<path d="M 0 0 L 0 1 L 1 1 z" style="fill:url(#grad0-16)"/>
		</pattern>
		<linearGradient id="grad0-15" x1="0" y1="0" x2="1" y2="0" gradientTransform="rotate(270 0.5 0.5)">
			<stop offset="0" stop-color="#e6e6e6" stop-opacity="1"/>
			<stop offset="1" stop-color="#c0c0c0" stop-opacity="1"/>
		</linearGradient>
		<linearGradient id="grad0-16" x1="0" y1="0" x2="1" y2="0" gradientTransform="rotate(180 0.5 0.5)">
			<stop offset="0" stop-color="#e6e6e6" stop-opacity="1"/>
			<stop offset="1" stop-color="#c0c0c0" stop-opacity="1"/>
		</linearGradient>
		<radialGradient id="grad1-24" cx="1" cy="1" r="1.4">
			<stop offset="0" stop-color="#e6e6e6" stop-opacity="1"/>
			<stop offset="1" stop-color="#9a9a9a" stop-opacity="1"/>
		</radialGradient>
		<radialGradient id="grad1-28" cx="1" cy="1" r="1.4">
			<stop offset="0" stop-color="#9a9a9a" stop-opacity="1"/>
			<stop offset="1" stop-color="#e6e6e6" stop-opacity="1"/>
		</radialGradient>
		<radialGradient id="grad1-35" cx="1" cy="1" r="1.4">
			<stop offset="0" stop-color="#00ff00" stop-opacity="1"/>
			<stop offset="1" stop-color="#ffff00" stop-opacity="1"/>
		</radialGradient>
		<pattern id="grad10-41" x="0" y="0" width="1" height="1" patternContentUnits="objectBoundingBox">
			<path d="M 0.5 0.5 L 0 0 L 0 1 z" style="fill:url(#grad0-16)"/>
			<path d="M 0.5 0.5 L 1 0 L 1 1 z" style="fill:url(#grad0-42)"/>
			<path d="M 0.5 0.5 L 0 0 L 1 0 z" style="fill:url(#grad0-15)"/>
			<path d="M 0.5 0.5 L 0 1 L 1 1 z" style="fill:url(#grad0-43)"/>
		</pattern>
		<linearGradient id="grad0-42" x1="0" y1="0" x2="1" y2="0" gradientTransform="rotate(360 0.5 0.5)">
			<stop offset="0" stop-color="#e6e6e6" stop-opacity="1"/>
			<stop offset="1" stop-color="#c0c0c0" stop-opacity="1"/>
		</linearGradient>
		<linearGradient id="grad0-43" x1="0" y1="0" x2="1" y2="0" gradientTransform="rotate(90 0.5 0.5)">
			<stop offset="0" stop-color="#e6e6e6" stop-opacity="1"/>
			<stop offset="1" stop-color="#c0c0c0" stop-opacity="1"/>
		</linearGradient>
		<pattern id="grad10-50" x="0" y="0" width="1" height="1" patternContentUnits="objectBoundingBox">
			<path d="M 0.5 0.5 L 0 0 L 0 1 z" style="fill:url(#grad0-51)"/>
			<path d="M 0.5 0.5 L 1 0 L 1 1 z" style="fill:url(#grad0-52)"/>
			<path d="M 0.5 0.5 L 0 0 L 1 0 z" style="fill:url(#grad0-53)"/>
			<path d="M 0.5 0.5 L 0 1 L 1 1 z" style="fill:url(#grad0-54)"/>
		</pattern>
		<linearGradient id="grad0-51" x1="0" y1="0" x2="1" y2="0" gradientTransform="rotate(180 0.5 0.5)">
			<stop offset="0" stop-color="#e6e6e6" stop-opacity="1"/>
			<stop offset="1" stop-color="#9a9a9a" stop-opacity="1"/>
		</linearGradient>
		<linearGradient id="grad0-52" x1="0" y1="0" x2="1" y2="0" gradientTransform="rotate(360 0.5 0.5)">
			<stop offset="0" stop-color="#e6e6e6" stop-opacity="1"/>
			<stop offset="1" stop-color="#9a9a9a" stop-opacity="1"/>
		</linearGradient>
		<linearGradient id="grad0-53" x1="0" y1="0" x2="1" y2="0" gradientTransform="rotate(270 0.5 0.5)">
			<stop offset="0" stop-color="#e6e6e6" stop-opacity="1"/>
			<stop offset="1" stop-color="#9a9a9a" stop-opacity="1"/>
		</linearGradient>
		<linearGradient id="grad0-54" x1="0" y1="0" x2="1" y2="0" gradientTransform="rotate(90 0.5 0.5)">
			<stop offset="0" stop-color="#e6e6e6" stop-opacity="1"/>
			<stop offset="1" stop-color="#9a9a9a" stop-opacity="1"/>
		</linearGradient>
		<linearGradient id="grad0-70" x1="0" y1="0" x2="1" y2="0" gradientTransform="rotate(0 0.5 0.5)">
			<stop offset="0" stop-color="#666666" stop-opacity="1"/>
			<stop offset="1" stop-color="#c0c0c0" stop-opacity="1"/>
		</linearGradient>
		<linearGradient id="grad0-74" x1="0" y1="0" x2="1" y2="0" gradientTransform="rotate(180 0.5 0.5)">
			<stop offset="0" stop-color="#666666" stop-opacity="1"/>
			<stop offset="1" stop-color="#c0c0c0" stop-opacity="1"/>
		</linearGradient>
		<linearGradient id="grad0-219" x1="0" y1="0" x2="1" y2="0" gradientTransform="rotate(270 0.5 0.5)">
			<stop offset="0" stop-color="#9a9a9a" stop-opacity="1"/>
			<stop offset="1" stop-color="#e6e6e6" stop-opacity="1"/>
		</linearGradient>
		<linearGradient id="grad0-232" x1="0" y1="0" x2="1" y2="0" gradientTransform="rotate(90 0.5 0.5)">
			<stop offset="0" stop-color="#ff0000" stop-opacity="1"/>
			<stop offset="1" stop-color="#800000" stop-opacity="1"/>
		</linearGradient>
		<pattern id="grad12-236" x="0" y="0" width="1" height="1" patternContentUnits="objectBoundingBox">
			<path d="M 0 0 L 0 1 L 1 1 z" style="fill:url(#grad0-237)"/>
			<path d="M 0 0 L 1 0 L 1 1 z" style="fill:url(#grad0-238)"/>
		</pattern>
		<linearGradient id="grad0-237" x1="0" y1="0" x2="1" y2="0" gradientTransform="rotate(90 0.5 0.5)">
			<stop offset="0" stop-color="#ffffff" stop-opacity="1"/>
			<stop offset="1" stop-color="#8a8aff" stop-opacity="1"/>
		</linearGradient>
		<linearGradient id="grad0-238" x1="0" y1="0" x2="1" y2="0" gradientTransform="rotate(360 0.5 0.5)">
			<stop offset="0" stop-color="#ffffff" stop-opacity="1"/>
			<stop offset="1" stop-color="#8a8aff" stop-opacity="1"/>
		</linearGradient>
		<pattern id="grad12-242" x="0" y="0" width="1" height="1" patternContentUnits="objectBoundingBox">
			<path d="M 0 0 L 0 1 L 1 1 z" style="fill:url(#grad0-243)"/>
			<path d="M 0 0 L 1 0 L 1 1 z" style="fill:url(#grad0-244)"/>
		</pattern>
		<linearGradient id="grad0-243" x1="0" y1="0" x2="1" y2="0" gradientTransform="rotate(90 0.5 0.5)">
			<stop offset="0" stop-color="#666666" stop-opacity="1"/>
			<stop offset="1" stop-color="#c0c0c0" stop-opacity="1"/>
		</linearGradient>
		<linearGradient id="grad0-244" x1="0" y1="0" x2="1" y2="0" gradientTransform="rotate(360 0.5 0.5)">
			<stop offset="0" stop-color="#666666" stop-opacity="1"/>
			<stop offset="1" stop-color="#c0c0c0" stop-opacity="1"/>
		</linearGradient>
		<linearGradient id="grad0-257" x1="0" y1="0" x2="1" y2="0" gradientTransform="rotate(0 0.5 0.5)">
			<stop offset="0" stop-color="#9a9a9a" stop-opacity="1"/>
			<stop offset="1" stop-color="#e6e6e6" stop-opacity="1"/>
		</linearGradient>
	</defs>
	<defs id="Markers">
		<g id="lend4">
			<path d="M 2 1 L 0 0 L 2 -1 L 2 1 " style="stroke:none"/>
		</g>
		<marker id="mrkr4-271" class="st28" v:arrowType="4" v:arrowSize="2" v:setback="7.04" refX="-7.04" orient="auto"
				markerUnits="strokeWidth" overflow="visible">
			<use xlink:href="#lend4" transform="scale(-3.52,-3.52) "/>
		</marker>
		<marker id="mrkr4-277" class="st30" v:arrowType="4" v:arrowSize="1" v:setback="3.8" refX="-3.8" orient="auto"
				markerUnits="strokeWidth" overflow="visible">
			<use xlink:href="#lend4" transform="scale(-1.9,-1.9) "/>
		</marker>
	</defs>
	<g v:mID="0" v:index="1" v:groupContext="foregroundPage">
		<v:userDefs>
			<v:ud v:nameU="msvThemeOrder" v:val="VT0(0):26"/>
		</v:userDefs>
		<title>Page-1</title>
		<v:pageProperties v:drawingScale="0.0393701" v:pageScale="0.0393701" v:drawingUnits="24" v:shadowOffsetX="8.50394"
				v:shadowOffsetY="-8.50394"/>
		<v:layer v:name="Web Site Map Shapes" v:index="0"/>
		<v:layer v:name="Network" v:index="1"/>
		<v:layer v:name="Connector" v:index="2"/>
		<g id="group17-1" transform="translate(656.238,-251.087)" v:mID="17" v:groupContext="group">
			<v:userDefs>
				<v:ud v:nameU="visDescription" v:val="VT4(Use to add a group of network servers to your system diagram.)"/>
				<v:ud v:nameU="visVersion" v:val="VT0(15):26"/>
			</v:userDefs>
			<title>Servers</title>
			<desc>Website Servers</desc>
			<g id="group18-2" transform="translate(20.8125,0)" v:mID="18" v:groupContext="group" v:layerMember="1">
				<v:custProps>
					<v:cp v:nameU="Manufacturer" v:lbl="Manufacturer" v:type="0" v:sortKey="1" v:invis="false" v:ask="false"
							v:langID="1033" v:val="VT4()"/>
					<v:cp v:nameU="ProductNumber" v:lbl="Product Number" v:type="0" v:sortKey="1" v:invis="false" v:ask="false"
							v:langID="1033" v:val="VT4()"/>
					<v:cp v:nameU="PartNumber" v:lbl="Part Number" v:type="0" v:sortKey="1" v:invis="false" v:ask="false"
							v:langID="1033" v:val="VT4()"/>
					<v:cp v:nameU="ProductDescription" v:lbl="Product Description" v:type="0" v:sortKey="1" v:invis="false"
							v:ask="false" v:langID="1033" v:val="VT4()"/>
					<v:cp v:nameU="AssetNumber" v:lbl="Asset Number" v:type="0" v:sortKey="1" v:invis="false" v:ask="false"
							v:langID="1033" v:val="VT4()"/>
					<v:cp v:nameU="SerialNumber" v:lbl="Serial Number" v:type="0" v:sortKey="1" v:invis="false" v:ask="false"
							v:langID="1033" v:val="VT4()"/>
					<v:cp v:nameU="Location" v:lbl="Location" v:type="0" v:sortKey="1" v:invis="false" v:ask="false"
							v:langID="1033" v:val="VT4()"/>
					<v:cp v:nameU="Building" v:lbl="Building" v:type="0" v:sortKey="1" v:invis="false" v:ask="false"
							v:langID="1033" v:val="VT4()"/>
					<v:cp v:nameU="Room" v:lbl="Room" v:type="0" v:sortKey="1" v:invis="false" v:ask="false" v:langID="1033"
							v:val="VT4()"/>
					<v:cp v:nameU="Department" v:lbl="Department" v:type="0" v:sortKey="1" v:invis="false" v:ask="false"
							v:langID="1033" v:val="VT4()"/>
				</v:custProps>
				<title>Sheet.18</title>
				<g id="shape19-3" v:mID="19" v:groupContext="shape" v:layerMember="1" transform="translate(11.3203,0)">
					<title>Sheet.19</title>
					<path d="M0 595.28 L4.18 591.09 L4.18 590.35 L0 594.54 L0 595.28 Z" class="st1"/>
				</g>
				<g id="shape20-5" v:mID="20" v:groupContext="shape" v:layerMember="1" transform="translate(0,-31.5)">
					<title>Sheet.20</title>
					<path d="M0 595.28 L3.94 591.34 L15.75 591.34 L11.81 595.28 L0 595.28 Z" class="st1"/>
				</g>
				<g id="shape21-7" v:mID="21" v:groupContext="shape" v:layerMember="1" transform="translate(11.8125,-0.738281)">
					<title>Sheet.21</title>
					<path d="M0 564.51 L3.94 560.58 L3.94 591.34 L0 595.28 L0 564.51 Z" class="st1"/>
				</g>
				<g id="shape22-9" v:mID="22" v:groupContext="shape" v:layerMember="1" transform="translate(-1.39888E-14,-0.738281)">
					<title>Sheet.22</title>
					<rect x="0" y="564.514" width="11.8125" height="30.7617" class="st2"/>
				</g>
				<g id="shape23-11" v:mID="23" v:groupContext="shape" v:layerMember="1" transform="translate(1.47656,-11.3203)">
					<title>Sheet.23</title>
					<rect x="0" y="576.572" width="8.85938" height="18.7031" class="st3"/>
				</g>
				<g id="shape24-17" v:mID="24" v:groupContext="shape" v:layerMember="1" transform="translate(2.53694,-12.9775)">
					<title>Sheet.24</title>
					<path d="M0 593.67 L6.74 593.67 L6.74 595.28 L0 595.28 L0 593.67 ZM0 591.21 L6.74 591.21 L6.74 592.81 L0 592.81
								 L0 591.21 ZM0 588.75 L6.74 588.75 L6.74 590.35 L0 590.35 L0 588.75 ZM0 586.29 L6.74 586.29 L6.74
								 587.89 L0 587.89 L0 586.29 ZM0 582.78 L6.74 582.78 L6.74 585.49 L0 585.49 L0 582.78 ZM0 579.21 L6.74
								 579.21 L6.74 581.92 L0 581.92 L0 579.21 Z" class="st2"/>
				</g>
				<g id="shape25-19" v:mID="25" v:groupContext="shape" v:layerMember="1" transform="translate(0.492188,0)">
					<title>Sheet.25</title>
					<rect x="0" y="594.537" width="10.8281" height="0.738281" class="st1"/>
				</g>
				<g id="shape26-21" v:mID="26" v:groupContext="shape" v:layerMember="1" transform="translate(5.0974,-7.89219)">
					<title>Sheet.26</title>
					<path d="M0 594.47 a0.808852 0.808852 0 0 1 1.6177 0 a0.808852 0.808852 0 1 1 -1.6177 0 Z" class="st4"/>
				</g>
				<g id="shape27-25" v:mID="27" v:groupContext="shape" v:layerMember="1" transform="translate(5.42094,-8.21573)">
					<title>Sheet.27</title>
					<path d="M0 594.79 a0.485311 0.485311 0 1 1 0.970623 0 a0.485311 0.485311 0 1 1 -0.970623 0 Z" class="st5"/>
				</g>
				<g id="shape28-29" v:mID="28" v:groupContext="shape" v:layerMember="1" transform="translate(5.41406,-6.24011)">
					<title>Sheet.28</title>
					<path d="M0 594.78 a0.492188 0.492188 0 0 1 0.984375 0 a0.492188 0.492188 0 1 1 -0.984375 0 Z" class="st4"/>
				</g>
				<g id="shape29-32" v:mID="29" v:groupContext="shape" v:layerMember="1" transform="translate(5.61094,-6.43698)">
					<title>Sheet.29</title>
					<path d="M0 594.98 a0.295313 0.295313 0 0 1 0.590625 0 a0.295313 0.295313 0 1 1 -0.590625 0 Z" class="st6"/>
				</g>
				<g id="shape30-36" v:mID="30" v:groupContext="shape" v:layerMember="1" transform="translate(4.18359,-27.4395)">
					<title>Sheet.30</title>
					<rect x="0" y="595.016" width="0.984375" height="0.259178" class="st1"/>
				</g>
				<g id="shape31-38" v:mID="31" v:groupContext="shape" v:layerMember="1" transform="translate(3.05529,-28.032)">
					<title>Sheet.31</title>
					<rect x="0" y="594.757" width="5.70191" height="0.518356" class="st7"/>
				</g>
				<g id="shape32-44" v:mID="32" v:groupContext="shape" v:layerMember="1" transform="translate(4.18359,-27.1934)">
					<title>Sheet.32</title>
					<path d="M0.98 594.91 L0 594.91 a0.492188 0.369141 -180 1 0 0.984375 0 Z" class="st5"/>
				</g>
				<g id="shape33-47" v:mID="33" v:groupContext="shape" v:layerMember="1" transform="translate(2.92941,-23.7832)">
					<title>Sheet.33</title>
					<path d="M0 594.46 L1.56 594.46 A4.79479 3.03516 0 0 1 4.67 594.46 L5.7 594.46 L5.7 595.28 L0 595.28 L0 594.46
								 Z" class="st8"/>
				</g>
				<g id="shape34-55" v:mID="34" v:groupContext="shape" v:layerMember="1" transform="translate(3.18858,-24.0293)">
					<title>Sheet.34</title>
					<rect x="0" y="595.029" width="5.18356" height="0.246094" class="st2"/>
				</g>
				<g id="shape35-57" v:mID="35" v:groupContext="shape" v:layerMember="1" transform="translate(2.95312,-20.8888)">
					<title>Sheet.35</title>
					<path d="M0 595.12 L0 594.69 L1.89 594.69 A2.1887 1.4186 0 0 1 4.02 594.69 L5.91 594.69 L5.91 595.12 L4.02 595.12
								 A2.48344 1.60963 0 0 1 1.89 595.12 L0 595.12 Z" class="st8"/>
				</g>
				<g id="shape36-60" v:mID="36" v:groupContext="shape" v:layerMember="1" transform="translate(5.90625,-20.5348)">
					<title>Sheet.36</title>
					<path d="M2.06 588.45 L2.86 588.45 L2.86 588.05 L2.06 588.05 L2.06 588.45 ZM1.29 588.36 L0.77 588.62 L0.77 588.1
								 L1.29 588.36 ZM0 588.36 L0.51 588.1 L0.51 588.62 L0 588.36 ZM1.67 592.57 L2.71 592.57 L2.71 592.29
								 L1.67 592.29 L1.67 592.57 ZM1.91 595.28 L2.95 595.28 L2.95 595 L1.91 595 L1.91 595.28 Z"
							class="st8"/>
				</g>
				<g id="shape37-63" v:mID="37" v:groupContext="shape" v:layerMember="1" transform="translate(2.95313,-23.3789)">
					<title>Sheet.37</title>
					<path d="M0.12 590.97 L0.62 590.97" class="st9"/>
					<path d="M0 595.28 L0.49 595.28" class="st9"/>
				</g>
				<g id="shape38-67" v:mID="38" v:groupContext="shape" v:layerMember="1" transform="translate(1.47656,-1.96875)">
					<title>Sheet.38</title>
					<path d="M0 595.28 L2.79 595.28 L2.79 594.77 L0 594.77 L0 595.28 ZM0 588.94 L2.79 588.94 L2.79 588.44 L0 588.44
								 L0 588.94 ZM0 590.21 L2.79 590.21 L2.79 589.7 L0 589.7 L0 590.21 ZM0 591.48 L2.79 591.48 L2.79 590.97
								 L0 590.97 L0 591.48 ZM0 592.74 L2.79 592.74 L2.79 592.24 L0 592.24 L0 592.74 ZM0 594.01 L2.79 594.01
								 L2.79 593.5 L0 593.5 L0 594.01 ZM0 587.68 L2.79 587.68 L2.79 587.17 L0 587.17 L0 587.68 Z"
							class="st10"/>
				</g>
				<g id="shape39-71" v:mID="39" v:groupContext="shape" v:layerMember="1" transform="translate(7.54929,-1.85294)">
					<title>Sheet.39</title>
					<path d="M0 595.28 L2.79 595.28 L2.79 594.77 L0 594.77 L0 595.28 ZM0 588.94 L2.79 588.94 L2.79 588.44 L0 588.44
								 L0 588.94 ZM0 590.21 L2.79 590.21 L2.79 589.7 L0 589.7 L0 590.21 ZM0 591.48 L2.79 591.48 L2.79 590.97
								 L0 590.97 L0 591.48 ZM0 592.74 L2.79 592.74 L2.79 592.24 L0 592.24 L0 592.74 ZM0 594.01 L2.79 594.01
								 L2.79 593.5 L0 593.5 L0 594.01 ZM0 587.68 L2.79 587.68 L2.79 587.17 L0 587.17 L0 587.68 Z"
							class="st11"/>
				</g>
				<g id="shape40-75" v:mID="40" v:groupContext="shape" v:layerMember="1">
					<title>Sheet.40</title>
					<path d="M0.49 595.28 L0.49 594.54 L0 594.54 L0 563.78 L3.94 559.84 L15.75 559.84 L15.75 590.6 L15.5 590.85 L15.5
								 591.09 L11.32 595.28 L0.49 595.28 Z" class="st12"/>
				</g>
				<g id="shape41-77" v:mID="41" v:groupContext="shape" v:layerMember="1" transform="translate(3.90625,13.6)">
					<title>Sheet.41</title>
					<v:userDefs>
						<v:ud v:nameU="FillPattern" v:val="VT0(1):26"/>
						<v:ud v:nameU="FillForegnd" v:val="VT0(1):26"/>
						<v:ud v:nameU="FillBkgnd" v:val="VT0(0):26"/>
					</v:userDefs>
					<rect x="0" y="581.676" width="4" height="13.6" class="st13"/>
				</g>
			</g>
			<g id="group42-79" transform="translate(29.25,-37.5)" v:mID="42" v:groupContext="group" v:layerMember="1">
				<v:custProps>
					<v:cp v:nameU="Manufacturer" v:lbl="Manufacturer" v:type="0" v:sortKey="1" v:invis="false" v:ask="false"
							v:langID="1033" v:val="VT4()"/>
					<v:cp v:nameU="ProductNumber" v:lbl="Product Number" v:type="0" v:sortKey="1" v:invis="false" v:ask="false"
							v:langID="1033" v:val="VT4()"/>
					<v:cp v:nameU="PartNumber" v:lbl="Part Number" v:type="0" v:sortKey="1" v:invis="false" v:ask="false"
							v:langID="1033" v:val="VT4()"/>
					<v:cp v:nameU="ProductDescription" v:lbl="Product Description" v:type="0" v:sortKey="1" v:invis="false"
							v:ask="false" v:langID="1033" v:val="VT4()"/>
					<v:cp v:nameU="AssetNumber" v:lbl="Asset Number" v:type="0" v:sortKey="1" v:invis="false" v:ask="false"
							v:langID="1033" v:val="VT4()"/>
					<v:cp v:nameU="SerialNumber" v:lbl="Serial Number" v:type="0" v:sortKey="1" v:invis="false" v:ask="false"
							v:langID="1033" v:val="VT4()"/>
					<v:cp v:nameU="Location" v:lbl="Location" v:type="0" v:sortKey="1" v:invis="false" v:ask="false"
							v:langID="1033" v:val="VT4()"/>
					<v:cp v:nameU="Building" v:lbl="Building" v:type="0" v:sortKey="1" v:invis="false" v:ask="false"
							v:langID="1033" v:val="VT4()"/>
					<v:cp v:nameU="Room" v:lbl="Room" v:type="0" v:sortKey="1" v:invis="false" v:ask="false" v:langID="1033"
							v:val="VT4()"/>
					<v:cp v:nameU="Department" v:lbl="Department" v:type="0" v:sortKey="1" v:invis="false" v:ask="false"
							v:langID="1033" v:val="VT4()"/>
				</v:custProps>
				<title>Sheet.42</title>
				<g id="shape43-80" v:mID="43" v:groupContext="shape" v:layerMember="1" transform="translate(8.625,0)">
					<title>Sheet.43</title>
					<path d="M0 595.28 L3.19 592.09 L3.19 591.53 L0 594.71 L0 595.28 Z" class="st1"/>
				</g>
				<g id="shape44-82" v:mID="44" v:groupContext="shape" v:layerMember="1" transform="translate(-4.996E-15,-24)">
					<title>Sheet.44</title>
					<path d="M0 595.28 L3 592.28 L12 592.28 L9 595.28 L0 595.28 Z" class="st1"/>
				</g>
				<g id="shape45-84" v:mID="45" v:groupContext="shape" v:layerMember="1" transform="translate(9,-0.5625)">
					<title>Sheet.45</title>
					<path d="M0 571.84 L3 568.84 L3 592.28 L0 595.28 L0 571.84 Z" class="st1"/>
				</g>
				<g id="shape46-86" v:mID="46" v:groupContext="shape" v:layerMember="1" transform="translate(-7.99361E-15,-0.5625)">
					<title>Sheet.46</title>
					<rect x="0" y="571.838" width="9" height="23.4375" class="st2"/>
				</g>
				<g id="shape47-88" v:mID="47" v:groupContext="shape" v:layerMember="1" transform="translate(1.125,-8.625)">
					<title>Sheet.47</title>
					<rect x="0" y="581.026" width="6.75" height="14.25" class="st3"/>
				</g>
				<g id="shape48-91" v:mID="48" v:groupContext="shape" v:layerMember="1" transform="translate(1.9329,-9.88766)">
					<title>Sheet.48</title>
					<path d="M0 594.05 L5.13 594.05 L5.13 595.28 L0 595.28 L0 594.05 ZM0 592.18 L5.13 592.18 L5.13 593.4 L0 593.4
								 L0 592.18 ZM0 590.3 L5.13 590.3 L5.13 591.53 L0 591.53 L0 590.3 ZM0 588.43 L5.13 588.43 L5.13 589.65
								 L0 589.65 L0 588.43 ZM0 585.76 L5.13 585.76 L5.13 587.82 L0 587.82 L0 585.76 ZM0 583.04 L5.13 583.04
								 L5.13 585.1 L0 585.1 L0 583.04 Z" class="st2"/>
				</g>
				<g id="shape49-93" v:mID="49" v:groupContext="shape" v:layerMember="1" transform="translate(0.375,0)">
					<title>Sheet.49</title>
					<rect x="0" y="594.713" width="8.25" height="0.5625" class="st1"/>
				</g>
				<g id="shape50-95" v:mID="50" v:groupContext="shape" v:layerMember="1" transform="translate(3.88373,-6.0131)">
					<title>Sheet.50</title>
					<path d="M0 594.66 a0.616268 0.616268 0 1 1 1.23254 0 a0.616268 0.616268 0 1 1 -1.23254 0 Z" class="st4"/>
				</g>
				<g id="shape51-98" v:mID="51" v:groupContext="shape" v:layerMember="1" transform="translate(4.13024,-6.2596)">
					<title>Sheet.51</title>
					<path d="M0 594.91 a0.369761 0.369761 0 1 1 0.739522 0 a0.369761 0.369761 0 0 1 -0.739522 0 Z" class="st5"/>
				</g>
				<g id="shape52-101" v:mID="52" v:groupContext="shape" v:layerMember="1" transform="translate(4.125,-4.75437)">
					<title>Sheet.52</title>
					<path d="M0 594.9 a0.375 0.375 0 0 1 0.75 0 a0.375 0.375 0 1 1 -0.75 0 Z" class="st4"/>
				</g>
				<g id="shape53-104" v:mID="53" v:groupContext="shape" v:layerMember="1" transform="translate(4.275,-4.90437)">
					<title>Sheet.53</title>
					<path d="M0 595.05 a0.225 0.225 0 0 1 0.45 0 a0.225 0.225 0 1 1 -0.45 0 Z" class="st6"/>
				</g>
				<g id="shape54-107" v:mID="54" v:groupContext="shape" v:layerMember="1" transform="translate(3.1875,-20.9063)">
					<title>Sheet.54</title>
					<rect x="0" y="595.078" width="0.75" height="0.197469" class="st1"/>
				</g>
				<g id="shape55-109" v:mID="55" v:groupContext="shape" v:layerMember="1" transform="translate(2.32784,-21.3577)">
					<title>Sheet.55</title>
					<rect x="0" y="594.881" width="4.34432" height="0.394938" class="st7"/>
				</g>
				<g id="shape56-112" v:mID="56" v:groupContext="shape" v:layerMember="1" transform="translate(3.1875,-20.7188)">
					<title>Sheet.56</title>
					<path d="M0.75 594.99 L0 594.99 a0.375 0.28125 -180 1 0 0.75 0 Z" class="st5"/>
				</g>
				<g id="shape57-115" v:mID="57" v:groupContext="shape" v:layerMember="1" transform="translate(2.23193,-18.1205)">
					<title>Sheet.57</title>
					<path d="M0 594.65 L1.18 594.65 A3.65317 2.3125 0 0 1 3.55 594.65 L4.34 594.65 L4.34 595.28 L0 595.28 L0 594.65
								 Z" class="st8"/>
				</g>
				<g id="shape58-118" v:mID="58" v:groupContext="shape" v:layerMember="1" transform="translate(2.4294,-18.308)">
					<title>Sheet.58</title>
					<rect x="0" y="595.088" width="3.94938" height="0.1875" class="st2"/>
				</g>
				<g id="shape59-120" v:mID="59" v:groupContext="shape" v:layerMember="1" transform="translate(2.25,-15.9153)">
					<title>Sheet.59</title>
					<path d="M0 595.16 L0 594.83 L1.44 594.83 A1.66758 1.08084 0 0 1 3.06 594.83 L4.5 594.83 L4.5 595.16 L3.06 595.16
								 A1.89214 1.22639 0 0 1 1.44 595.16 L0 595.16 Z" class="st8"/>
				</g>
				<g id="shape60-123" v:mID="60" v:groupContext="shape" v:layerMember="1" transform="translate(4.5,-15.6456)">
					<title>Sheet.60</title>
					<path d="M1.57 590.07 L2.18 590.07 L2.18 589.77 L1.57 589.77 L1.57 590.07 ZM0.98 590.01 L0.59 590.2 L0.59 589.81
								 L0.98 590.01 ZM0 590.01 L0.39 589.81 L0.39 590.2 L0 590.01 ZM1.27 593.21 L2.06 593.21 L2.06 593
								 L1.27 593 L1.27 593.21 ZM1.46 595.28 L2.25 595.28 L2.25 595.07 L1.46 595.07 L1.46 595.28 Z"
							class="st8"/>
				</g>
				<g id="shape61-126" v:mID="61" v:groupContext="shape" v:layerMember="1" transform="translate(2.25,-17.8125)">
					<title>Sheet.61</title>
					<path d="M0.09 591.99 L0.47 591.99" class="st9"/>
					<path d="M0 595.28 L0.37 595.28" class="st9"/>
				</g>
				<g id="shape62-130" v:mID="62" v:groupContext="shape" v:layerMember="1" transform="translate(1.125,-1.5)">
					<title>Sheet.62</title>
					<path d="M0 595.28 L2.12 595.28 L2.12 594.89 L0 594.89 L0 595.28 ZM0 590.45 L2.12 590.45 L2.12 590.06 L0 590.06
								 L0 590.45 ZM0 591.42 L2.12 591.42 L2.12 591.03 L0 591.03 L0 591.42 ZM0 592.38 L2.12 592.38 L2.12
								 591.99 L0 591.99 L0 592.38 ZM0 593.35 L2.12 593.35 L2.12 592.96 L0 592.96 L0 593.35 ZM0 594.31 L2.12
								 594.31 L2.12 593.92 L0 593.92 L0 594.31 ZM0 589.49 L2.12 589.49 L2.12 589.1 L0 589.1 L0 589.49 Z"
							class="st10"/>
				</g>
				<g id="shape63-133" v:mID="63" v:groupContext="shape" v:layerMember="1" transform="translate(5.75184,-1.41176)">
					<title>Sheet.63</title>
					<path d="M0 595.28 L2.12 595.28 L2.12 594.89 L0 594.89 L0 595.28 ZM0 590.45 L2.12 590.45 L2.12 590.06 L0 590.06
								 L0 590.45 ZM0 591.42 L2.12 591.42 L2.12 591.03 L0 591.03 L0 591.42 ZM0 592.38 L2.12 592.38 L2.12
								 591.99 L0 591.99 L0 592.38 ZM0 593.35 L2.12 593.35 L2.12 592.96 L0 592.96 L0 593.35 ZM0 594.31 L2.12
								 594.31 L2.12 593.92 L0 593.92 L0 594.31 ZM0 589.49 L2.12 589.49 L2.12 589.1 L0 589.1 L0 589.49 Z"
							class="st11"/>
				</g>
				<g id="shape64-136" v:mID="64" v:groupContext="shape" v:layerMember="1">
					<title>Sheet.64</title>
					<path d="M0.37 595.28 L0.37 594.71 L0 594.71 L0 571.28 L3 568.28 L12 568.28 L12 591.71 L11.81 591.9 L11.81 592.09
								 L8.63 595.28 L0.37 595.28 Z" class="st12"/>
				</g>
				<g id="shape65-138" v:mID="65" v:groupContext="shape" v:layerMember="1" transform="translate(2.5,13.6)">
					<title>Sheet.65</title>
					<v:userDefs>
						<v:ud v:nameU="FillPattern" v:val="VT0(1):26"/>
						<v:ud v:nameU="FillForegnd" v:val="VT0(1):26"/>
						<v:ud v:nameU="FillBkgnd" v:val="VT0(0):26"/>
					</v:userDefs>
					<rect x="0" y="581.676" width="4" height="13.6" class="st13"/>
				</g>
			</g>
			<g id="group66-140" transform="translate(0,-15.75)" v:mID="66" v:groupContext="group" v:layerMember="1">
				<v:custProps>
					<v:cp v:nameU="Manufacturer" v:lbl="Manufacturer" v:type="0" v:sortKey="1" v:invis="false" v:ask="false"
							v:langID="1033" v:val="VT4()"/>
					<v:cp v:nameU="ProductNumber" v:lbl="Product Number" v:type="0" v:sortKey="1" v:invis="false" v:ask="false"
							v:langID="1033" v:val="VT4()"/>
					<v:cp v:nameU="PartNumber" v:lbl="Part Number" v:type="0" v:sortKey="1" v:invis="false" v:ask="false"
							v:langID="1033" v:val="VT4()"/>
					<v:cp v:nameU="ProductDescription" v:lbl="Product Description" v:type="0" v:sortKey="1" v:invis="false"
							v:ask="false" v:langID="1033" v:val="VT4()"/>
					<v:cp v:nameU="AssetNumber" v:lbl="Asset Number" v:type="0" v:sortKey="1" v:invis="false" v:ask="false"
							v:langID="1033" v:val="VT4()"/>
					<v:cp v:nameU="SerialNumber" v:lbl="Serial Number" v:type="0" v:sortKey="1" v:invis="false" v:ask="false"
							v:langID="1033" v:val="VT4()"/>
					<v:cp v:nameU="Location" v:lbl="Location" v:type="0" v:sortKey="1" v:invis="false" v:ask="false"
							v:langID="1033" v:val="VT4()"/>
					<v:cp v:nameU="Building" v:lbl="Building" v:type="0" v:sortKey="1" v:invis="false" v:ask="false"
							v:langID="1033" v:val="VT4()"/>
					<v:cp v:nameU="Room" v:lbl="Room" v:type="0" v:sortKey="1" v:invis="false" v:ask="false" v:langID="1033"
							v:val="VT4()"/>
					<v:cp v:nameU="Department" v:lbl="Department" v:type="0" v:sortKey="1" v:invis="false" v:ask="false"
							v:langID="1033" v:val="VT4()"/>
				</v:custProps>
				<title>Sheet.66</title>
				<g id="shape67-141" v:mID="67" v:groupContext="shape" v:layerMember="1" transform="translate(12.9375,0)">
					<title>Sheet.67</title>
					<path d="M0 595.28 L4.78 590.49 L4.78 589.65 L0 594.43 L0 595.28 Z" class="st1"/>
				</g>
				<g id="shape68-143" v:mID="68" v:groupContext="shape" v:layerMember="1" transform="translate(0,-36)">
					<title>Sheet.68</title>
					<path d="M0 595.28 L4.5 590.78 L18 590.78 L13.5 595.28 L0 595.28 Z" class="st1"/>
				</g>
				<g id="shape69-145" v:mID="69" v:groupContext="shape" v:layerMember="1" transform="translate(13.5,-0.84375)">
					<title>Sheet.69</title>
					<path d="M0 560.12 L4.5 555.62 L4.5 590.78 L0 595.28 L0 560.12 Z" class="st1"/>
				</g>
				<g id="shape70-147" v:mID="70" v:groupContext="shape" v:layerMember="1"
						transform="translate(-1.59872E-14,-0.84375)">
					<title>Sheet.70</title>
					<rect x="0" y="560.119" width="13.5" height="35.1563" class="st2"/>
				</g>
				<g id="shape71-149" v:mID="71" v:groupContext="shape" v:layerMember="1" transform="translate(1.6875,-12.9375)">
					<title>Sheet.71</title>
					<rect x="0" y="573.901" width="10.125" height="21.375" class="st3"/>
				</g>
				<g id="shape72-152" v:mID="72" v:groupContext="shape" v:layerMember="1" transform="translate(2.89936,-14.8315)">
					<title>Sheet.72</title>
					<path d="M0 593.44 L7.7 593.44 L7.7 595.28 L0 595.28 L0 593.44 ZM0 590.63 L7.7 590.63 L7.7 592.46 L0 592.46 L0
								 590.63 ZM0 587.81 L7.7 587.81 L7.7 589.65 L0 589.65 L0 587.81 ZM0 585 L7.7 585 L7.7 586.84 L0 586.84
								 L0 585 ZM0 581 L7.7 581 L7.7 584.09 L0 584.09 L0 581 ZM0 576.92 L7.7 576.92 L7.7 580.01 L0 580.01
								 L0 576.92 Z" class="st2"/>
				</g>
				<g id="shape73-154" v:mID="73" v:groupContext="shape" v:layerMember="1" transform="translate(0.5625,0)">
					<title>Sheet.73</title>
					<rect x="0" y="594.432" width="12.375" height="0.84375" class="st1"/>
				</g>
				<g id="shape74-156" v:mID="74" v:groupContext="shape" v:layerMember="1" transform="translate(5.8256,-9.01965)">
					<title>Sheet.74</title>
					<path d="M0 594.35 a0.924403 0.924403 0 0 1 1.84881 0 a0.924403 0.924403 0 1 1 -1.84881 0 Z" class="st4"/>
				</g>
				<g id="shape75-159" v:mID="75" v:groupContext="shape" v:layerMember="1" transform="translate(6.19536,-9.38941)">
					<title>Sheet.75</title>
					<path d="M0 594.72 a0.554642 0.554642 0 0 1 1.10928 0 a0.554642 0.554642 0 1 1 -1.10928 0 Z" class="st5"/>
				</g>
				<g id="shape76-162" v:mID="76" v:groupContext="shape" v:layerMember="1" transform="translate(6.1875,-7.13155)">
					<title>Sheet.76</title>
					<path d="M0 594.71 a0.5625 0.5625 0 0 1 1.125 0 a0.5625 0.5625 0 1 1 -1.125 0 Z" class="st4"/>
				</g>
				<g id="shape77-165" v:mID="77" v:groupContext="shape" v:layerMember="1" transform="translate(6.4125,-7.35655)">
					<title>Sheet.77</title>
					<path d="M0 594.94 a0.3375 0.3375 0 0 1 0.675 0 a0.3375 0.3375 0 1 1 -0.675 0 Z" class="st6"/>
				</g>
				<g id="shape78-168" v:mID="78" v:groupContext="shape" v:layerMember="1" transform="translate(4.78125,-31.3594)">
					<title>Sheet.78</title>
					<rect x="0" y="594.979" width="1.125" height="0.296203" class="st1"/>
				</g>
				<g id="shape79-170" v:mID="79" v:groupContext="shape" v:layerMember="1" transform="translate(3.49176,-32.0365)">
					<title>Sheet.79</title>
					<rect x="0" y="594.683" width="6.51647" height="0.592407" class="st7"/>
				</g>
				<g id="shape80-173" v:mID="80" v:groupContext="shape" v:layerMember="1" transform="translate(4.78125,-31.0781)">
					<title>Sheet.80</title>
					<path d="M1.12 594.85 L0 594.85 a0.5625 0.421875 -180 1 0 1.125 0 Z" class="st5"/>
				</g>
				<g id="shape81-176" v:mID="81" v:groupContext="shape" v:layerMember="1" transform="translate(3.34789,-27.1808)">
					<title>Sheet.81</title>
					<path d="M0 594.34 L1.78 594.34 A5.47976 3.46875 0 0 1 5.33 594.34 L6.52 594.34 L6.52 595.28 L0 595.28 L0 594.34
								 Z" class="st8"/>
				</g>
				<g id="shape82-179" v:mID="82" v:groupContext="shape" v:layerMember="1" transform="translate(3.6441,-27.4621)">
					<title>Sheet.82</title>
					<rect x="0" y="594.994" width="5.92407" height="0.28125" class="st2"/>
				</g>
				<g id="shape83-181" v:mID="83" v:groupContext="shape" v:layerMember="1" transform="translate(3.375,-23.8729)">
					<title>Sheet.83</title>
					<path d="M0 595.1 L0 594.6 L2.16 594.6 A2.50137 1.62126 0 0 1 4.59 594.6 L6.75 594.6 L6.75 595.1 L4.59 595.1
								 A2.83821 1.83958 0 0 1 2.16 595.1 L0 595.1 Z" class="st8"/>
				</g>
				<g id="shape84-184" v:mID="84" v:groupContext="shape" v:layerMember="1" transform="translate(6.75,-23.4684)">
					<title>Sheet.84</title>
					<path d="M2.36 587.47 L3.27 587.47 L3.27 587.02 L2.36 587.02 L2.36 587.47 ZM1.47 587.37 L0.88 587.67 L0.88 587.08
								 L1.47 587.37 ZM0 587.37 L0.59 587.08 L0.59 587.67 L0 587.37 ZM1.9 592.18 L3.09 592.18 L3.09 591.87
								 L1.9 591.87 L1.9 592.18 ZM2.19 595.28 L3.38 595.28 L3.38 594.96 L2.19 594.96 L2.19 595.28 Z"
							class="st8"/>
				</g>
				<g id="shape85-187" v:mID="85" v:groupContext="shape" v:layerMember="1" transform="translate(3.375,-26.7188)">
					<title>Sheet.85</title>
					<path d="M0.14 590.35 L0.7 590.35" class="st9"/>
					<path d="M0 595.28 L0.56 595.28" class="st9"/>
				</g>
				<g id="shape86-191" v:mID="86" v:groupContext="shape" v:layerMember="1" transform="translate(1.6875,-2.25)">
					<title>Sheet.86</title>
					<path d="M0 595.28 L3.18 595.28 L3.18 594.7 L0 594.7 L0 595.28 ZM0 588.04 L3.18 588.04 L3.18 587.46 L0 587.46
								 L0 588.04 ZM0 589.49 L3.18 589.49 L3.18 588.91 L0 588.91 L0 589.49 ZM0 590.93 L3.18 590.93 L3.18
								 590.35 L0 590.35 L0 590.93 ZM0 592.38 L3.18 592.38 L3.18 591.8 L0 591.8 L0 592.38 ZM0 593.83 L3.18
								 593.83 L3.18 593.25 L0 593.25 L0 593.83 ZM0 586.59 L3.18 586.59 L3.18 586.01 L0 586.01 L0 586.59
								 Z" class="st10"/>
				</g>
				<g id="shape87-194" v:mID="87" v:groupContext="shape" v:layerMember="1" transform="translate(8.62776,-2.11765)">
					<title>Sheet.87</title>
					<path d="M0 595.28 L3.18 595.28 L3.18 594.7 L0 594.7 L0 595.28 ZM0 588.04 L3.18 588.04 L3.18 587.46 L0 587.46
								 L0 588.04 ZM0 589.49 L3.18 589.49 L3.18 588.91 L0 588.91 L0 589.49 ZM0 590.93 L3.18 590.93 L3.18
								 590.35 L0 590.35 L0 590.93 ZM0 592.38 L3.18 592.38 L3.18 591.8 L0 591.8 L0 592.38 ZM0 593.83 L3.18
								 593.83 L3.18 593.25 L0 593.25 L0 593.83 ZM0 586.59 L3.18 586.59 L3.18 586.01 L0 586.01 L0 586.59
								 Z" class="st11"/>
				</g>
				<g id="shape88-197" v:mID="88" v:groupContext="shape" v:layerMember="1">
					<title>Sheet.88</title>
					<path d="M0.56 595.28 L0.56 594.43 L0 594.43 L0 559.28 L4.5 554.78 L18 554.78 L18 589.93 L17.72 590.21 L17.72
								 590.49 L12.94 595.28 L0.56 595.28 Z" class="st12"/>
				</g>
				<g id="shape89-199" v:mID="89" v:groupContext="shape" v:layerMember="1" transform="translate(4.75,13.6)">
					<title>Sheet.89</title>
					<v:userDefs>
						<v:ud v:nameU="FillPattern" v:val="VT0(1):26"/>
						<v:ud v:nameU="FillForegnd" v:val="VT0(1):26"/>
						<v:ud v:nameU="FillBkgnd" v:val="VT0(0):26"/>
					</v:userDefs>
					<rect x="0" y="581.676" width="4" height="13.6" class="st13"/>
				</g>
			</g>
			<g id="shape17-201" v:mID="17" v:groupContext="groupContent">
				<v:textBlock v:margins="rect(4,4,4,4)" v:tabSpace="42.5197"/>
				<v:textRect cx="16.875" cy="606.526" width="186.03" height="12"/>
				<text x="-69.16" y="613.73" class="st14" v:langID="2057"><v:paragraph v:horizAlign="1"/><v:tabList/>Website <tspan
							class="st15" v:langID="1033">Servers</tspan></text>			</g>
		</g>
		<g id="shape90-204" v:mID="90" v:groupContext="shape" transform="translate(113.386,-249.092)">
			<title>User</title>
			<desc>User</desc>
			<v:userDefs>
				<v:ud v:nameU="visDescription" v:val="VT4(Use to add a system user to your system diagram.)"/>
				<v:ud v:nameU="visVersion" v:val="VT0(15):26"/>
			</v:userDefs>
			<v:textBlock v:margins="rect(4,4,4,4)" v:tabSpace="42.5197"/>
			<v:textRect cx="11.4034" cy="613.677" width="62.72" height="36.8035"/>
			<path d="M5.7 538.26 A5.7017 5.7017 0 0 1 17.11 538.26 A5.7017 5.7017 0 1 1 5.7 538.26 Z" class="st16"/>
			<path d="M0 549.66 L22.81 549.66" class="st9"/>
			<path d="M11.4 572.47 L22.81 595.28" class="st9"/>
			<path d="M11.4 543.96 L11.4 572.47 L0 595.28" class="st9"/>
			<path d="M5.7 538.26 A5.7017 5.7017 0 0 1 17.11 538.26 A5.7017 5.7017 0 1 1 5.7 538.26" class="st9"/>
			<text x="-12.98" y="620.88" class="st17" v:langID="2057"><v:paragraph v:horizAlign="1"/><v:tabList/>User</text>		</g>
		<g id="group91-211" transform="translate(325.984,-240.812)" v:mID="91" v:groupContext="group" v:layerMember="1">
			<v:custProps>
				<v:cp v:nameU="Manufacturer" v:lbl="Manufacturer" v:type="0" v:sortKey="1" v:invis="false" v:ask="false"
						v:langID="1033" v:val="VT4()"/>
				<v:cp v:nameU="ProductNumber" v:lbl="Product Number" v:type="0" v:sortKey="1" v:invis="false" v:ask="false"
						v:langID="1033" v:val="VT4()"/>
				<v:cp v:nameU="PartNumber" v:lbl="Part Number" v:type="0" v:sortKey="1" v:invis="false" v:ask="false"
						v:langID="1033" v:val="VT4()"/>
				<v:cp v:nameU="ProductDescription" v:lbl="Product Description" v:type="0" v:sortKey="1" v:invis="false"
						v:ask="false" v:langID="1033" v:val="VT4()"/>
				<v:cp v:nameU="AssetNumber" v:lbl="Asset Number" v:type="0" v:sortKey="1" v:invis="false" v:ask="false"
						v:langID="1033" v:val="VT4()"/>
				<v:cp v:nameU="SerialNumber" v:lbl="Serial Number" v:type="0" v:sortKey="1" v:invis="false" v:ask="false"
						v:langID="1033" v:val="VT4()"/>
				<v:cp v:nameU="Location" v:lbl="Location" v:type="0" v:sortKey="1" v:invis="false" v:ask="false" v:langID="1033"
						v:val="VT4()"/>
				<v:cp v:nameU="Building" v:lbl="Building" v:type="0" v:sortKey="1" v:invis="false" v:ask="false" v:langID="1033"
						v:val="VT4()"/>
				<v:cp v:nameU="Room" v:lbl="Room" v:type="0" v:sortKey="1" v:invis="false" v:ask="false" v:langID="1033"
						v:val="VT4()"/>
				<v:cp v:nameU="Department" v:lbl="Department" v:type="0" v:sortKey="1" v:invis="false" v:ask="false"
						v:langID="1033" v:val="VT4()"/>
			</v:custProps>
			<v:userDefs>
				<v:ud v:nameU="visDescription" v:val="VT4(Use to add a mainframe or supercomputer to your system diagram.)"/>
				<v:ud v:nameU="visVersion" v:val="VT0(15):26"/>
			</v:userDefs>
			<title>Mainframe</title>
			<g id="shape92-212" v:mID="92" v:groupContext="shape" v:layerMember="1" transform="translate(1.125,0.75)">
				<title>Sheet.92</title>
				<path d="M0 591.53 L0 593.03 L1.93 593.03 L1.93 591.53 L0 591.53 ZM8.2 593.78 L8.2 595.28 L10.12 595.28 L10.12 593.78
							 L8.2 593.78 ZM36 593.78 L36 595.28 L34.07 595.28 L34.07 593.78 L36 593.78 ZM38.25 593.78 L38.25 595.28
							 L40.18 595.28 L40.18 593.78 L38.25 593.78 ZM49.82 593.78 L49.82 595.28 L51.75 595.28 L51.75 593.78 L49.82
							 593.78 ZM54 591.15 L54 592.65 L55.93 592.65 L55.93 591.15 L54 591.15 Z" class="st2"/>
			</g>
			<g id="shape93-214" v:mID="93" v:groupContext="shape" v:layerMember="1" transform="translate(54,0)">
				<title>Sheet.93</title>
				<path d="M0 595.28 L4.5 590.78 L4.5 518.78 L0 523.28 L0 595.28 Z" class="st1"/>
			</g>
			<g id="shape94-216" v:mID="94" v:groupContext="shape" v:layerMember="1" transform="translate(0,-68.625)">
				<title>Sheet.94</title>
				<path d="M38.25 591.9 L42.75 587.4 L58.5 587.4 L54 591.9 L38.25 591.9 ZM0 595.28 L2.25 593.03 L7.87 593.03 L7.87
							 595.28 L0 595.28 ZM7.87 591.9 L12.37 587.4 L42.75 587.4 L38.25 591.9 L7.87 591.9 Z" class="st18"/>
			</g>
			<g id="shape95-220" v:mID="95" v:groupContext="shape" v:layerMember="1" transform="translate(38.25,0)">
				<title>Sheet.95</title>
				<rect x="0" y="523.276" width="15.75" height="72" class="st19"/>
			</g>
			<g id="shape96-223" v:mID="96" v:groupContext="shape" v:layerMember="1" transform="translate(7.875,0)">
				<title>Sheet.96</title>
				<rect x="0" y="523.276" width="30.375" height="72" class="st20"/>
			</g>
			<g id="shape97-226" v:mID="97" v:groupContext="shape" v:layerMember="1" transform="translate(0,-2.25)">
				<title>Sheet.97</title>
				<rect x="0" y="528.901" width="7.875" height="66.375" class="st19"/>
			</g>
			<g id="shape98-229" v:mID="98" v:groupContext="shape" v:layerMember="1" transform="translate(1.92857,-4.5)">
				<title>Sheet.98</title>
				<path d="M0 595.28 L5.95 595.28 L5.95 533.4 L0 533.4 L0 595.28 Z" class="st21"/>
			</g>
			<g id="shape99-233" v:mID="99" v:groupContext="shape" v:layerMember="1" transform="translate(46.9286,-66.375)">
				<title>Sheet.99</title>
				<rect x="0" y="592.526" width="4.82143" height="2.75" class="st22"/>
			</g>
			<g id="shape100-239" v:mID="100" v:groupContext="shape" v:layerMember="1" transform="translate(40.5,0)">
				<title>Sheet.100</title>
				<path d="M0 538.15 L11.25 538.15 L11.25 532.15 L0 532.15 L0 538.15 Z" class="st23"/>
				<path d="M0 538.15 L11.25 538.15 L11.25 532.15 L0 532.15 L0 538.15" class="st24"/>
				<path d="M0 523.28 L0 595.28" class="st24"/>
				<path d="M11.25 523.28 L11.25 595.28" class="st24"/>
			</g>
			<g id="shape101-248" v:mID="101" v:groupContext="shape" v:layerMember="1" transform="translate(42.2679,-58.5)">
				<title>Sheet.101</title>
				<rect x="0" y="592.276" width="7.71429" height="3" class="st2"/>
			</g>
			<g id="shape102-250" v:mID="102" v:groupContext="shape" v:layerMember="1" transform="translate(43.1518,-59.0341)">
				<title>Sheet.102</title>
				<rect x="0" y="594.151" width="1.96875" height="1.125" class="st1"/>
			</g>
			<g id="shape103-252" v:mID="103" v:groupContext="shape" v:layerMember="1" transform="translate(45.1205,-59.0341)">
				<title>Sheet.103</title>
				<rect x="0" y="594.151" width="1.96875" height="1.125" class="st1"/>
			</g>
			<g id="shape104-254" v:mID="104" v:groupContext="shape" v:layerMember="1" transform="translate(43.1518,-60.1562)">
				<title>Sheet.104</title>
				<rect x="0" y="594.526" width="5.90625" height="0.75" class="st25"/>
			</g>
			<g id="shape105-258" v:mID="105" v:groupContext="shape" v:layerMember="1" transform="translate(47.0893,-59.0341)">
				<title>Sheet.105</title>
				<rect x="0" y="594.151" width="1.96875" height="1.125" class="st1"/>
			</g>
			<g id="shape106-260" v:mID="106" v:groupContext="shape" v:layerMember="1">
				<title>Sheet.106</title>
				<path d="M7.87 595.28 L7.87 593.03 L0 593.03 L0 526.65 L2.25 524.4 L7.87 524.4 L7.87 523.28 L12.37 518.78 L58.5 518.78
							 L58.5 590.78 L54 595.28 L7.87 595.28" class="st9"/>
			</g>
			<g id="shape107-263" v:mID="107" v:groupContext="shape" v:layerMember="1" transform="translate(-61.7526,20.8035)">
				<title>Sheet.107</title>
				<desc>Web Monitoring Dashboard</desc>
				<v:userDefs>
					<v:ud v:nameU="FillPattern" v:val="VT0(1):26"/>
					<v:ud v:nameU="FillForegnd" v:val="VT0(1):26"/>
					<v:ud v:nameU="FillBkgnd" v:val="VT0(0):26"/>
				</v:userDefs>
				<v:textBlock v:margins="rect(2,2,2,2)" v:tabSpace="42.5197"/>
				<v:textRect cx="88.7526" cy="584.874" width="177.51" height="20.8035"/>
				<rect x="0" y="574.472" width="177.505" height="20.8035" class="st13"/>
				<text x="3.73" y="589.07" class="st26" v:langID="2057"><v:paragraph v:horizAlign="1"/><v:tabList/>Web Monitoring Dashboard</text>			</g>
		</g>
		<g id="shape108-266" v:mID="108" v:groupContext="shape" v:layerMember="2" transform="translate(136.193,-294.706)">
			<title>Dynamic connector</title>
			<path d="M0 595.28 L6.34 595.28 L6.34 613.17 L182.75 613.17" class="st27"/>
		</g>
		<g id="shape111-272" v:mID="111" v:groupContext="shape" v:layerMember="2" transform="translate(352.984,-320.911)">
			<title>Dynamic connector.111</title>
			<path d="M0 601.12 L0 590.7 L322.38 590.7 L322.38 596" class="st29"/>
		</g>
		<g id="shape113-278" v:mID="113" v:groupContext="shape" v:layerMember="2" transform="translate(656.238,-289.036)">
			<title>Dynamic connector.113</title>
			<path d="M0 597.22 L-6.34 597.22 L-6.34 607.5 L-266.4 607.5" class="st29"/>
		</g>
		<g id="shape114-283" v:mID="114" v:groupContext="shape" transform="translate(400.575,-281.78)">
			<title>Sheet.114</title>
			<desc>Send ping response</desc>
			<v:textBlock v:margins="rect(4,4,4,4)" v:tabSpace="42.5197"/>
			<v:textRect cx="76" cy="585.276" width="152" height="20"/>
			<rect x="0" y="575.276" width="152" height="20" class="st31"/>
			<text x="23.42" y="588.88" class="st32" v:langID="2057"><v:paragraph v:horizAlign="1"/><v:tabList/>Send ping response</text>		</g>
		<g id="shape117-286" v:mID="117" v:groupContext="shape" transform="translate(155.088,-291.811)">
			<title>Sheet.117</title>
			<desc>Add/edit/delete a website</desc>
			<v:textBlock v:margins="rect(4,4,4,4)" v:tabSpace="42.5197"/>
			<v:textRect cx="76" cy="585.276" width="152.01" height="20"/>
			<rect x="0" y="575.276" width="152" height="20" class="st31"/>
			<text x="7.08" y="588.88" class="st33" v:langID="2057"><v:paragraph v:horizAlign="1"/><v:tabList/>Add/edit/delete a website</text>		</g>
		<g id="shape119-289" v:mID="119" v:groupContext="shape" transform="translate(388.516,-334.072)">
			<title>Sheet.119</title>
			<desc>Ping all websites</desc>
			<v:textBlock v:margins="rect(4,4,4,4)" v:tabSpace="42.5197"/>
			<v:textRect cx="76" cy="585.276" width="152" height="20"/>
			<rect x="0" y="575.276" width="152" height="20" class="st31"/>
			<text x="31.1" y="588.88" class="st32" v:langID="2057"><v:paragraph v:horizAlign="1"/><v:tabList/>Ping all websites</text>		</g>
	</g>
</svg>
