<?xml version="1.0" encoding="UTF-8" standalone="no"?>
<!DOCTYPE svg PUBLIC "-//W3C//DTD SVG 1.1//EN" "http://www.w3.org/Graphics/SVG/1.1/DTD/svg11.dtd">
<!-- Generated by Microsoft Visio, SVG Export Data flows.svg Level 2 -->
<svg xmlns="http://www.w3.org/2000/svg" xmlns:xlink="http://www.w3.org/1999/xlink" xmlns:ev="http://www.w3.org/2001/xml-events"
		width="11.6929in" height="8.26772in" viewBox="0 0 841.89 595.276" xml:space="preserve" color-interpolation-filters="sRGB"
		class="st17">
	<style type="text/css">
	<![CDATA[
		.st1 {fill:#708bcb;stroke:#385da2;stroke-linecap:butt;stroke-width:1.25}
		.st2 {fill:#feffff;font-family:Calibri;font-size:0.666664em}
		.st3 {font-size:1em}
		.st4 {fill:#70ad47;stroke:#385da2;stroke-linecap:butt;stroke-width:1.25}
		.st5 {fill:#00b050;stroke:#385da2;stroke-linecap:butt;stroke-width:1.25}
		.st6 {fill:#c00000;stroke:#385da2;stroke-linecap:butt;stroke-width:1.25}
		.st7 {fill:none;stroke:none;stroke-width:0.25}
		.st8 {fill:#70ad47;font-family:Roboto;font-size:1.00001em}
		.st9 {fill:#00b050;font-family:Roboto;font-size:1.00001em}
		.st10 {fill:#c00000;font-family:Roboto;font-size:1.00001em}
		.st11 {fill:#bdd0e9;stroke:#c7c8c8;stroke-width:0.25}
		.st12 {fill:#4672c4;font-family:Roboto;font-size:1.99999em}
		.st13 {fill:url(#grad0-41);stroke:#386288;stroke-width:0.75}
		.st14 {fill:#4672c4;font-family:Roboto;font-size:1.5em}
		.st15 {fill:url(#grad0-46);stroke:#3c63ac;stroke-width:0.75}
		.st16 {fill:#4672c4;font-family:Roboto;font-size:1.00001em}
		.st17 {fill:none;fill-rule:evenodd;font-size:12px;overflow:visible;stroke-linecap:square;stroke-miterlimit:3}
	]]>
	</style>

	<defs id="Patterns_And_Gradients">
		<linearGradient id="grad0-41" x1="0" y1="0" x2="1" y2="0" gradientTransform="rotate(60 0.5 0.5)">
			<stop offset="0" stop-color="#e8ebef" stop-opacity="1"/>
			<stop offset="0.24" stop-color="#f4f5f7" stop-opacity="1"/>
			<stop offset="0.54" stop-color="#feffff" stop-opacity="1"/>
		</linearGradient>
		<linearGradient id="grad0-46" x1="0" y1="0" x2="1" y2="0" gradientTransform="rotate(60 0.5 0.5)">
			<stop offset="0" stop-color="#e8ebf4" stop-opacity="1"/>
			<stop offset="0.24" stop-color="#f4f5f9" stop-opacity="1"/>
			<stop offset="0.54" stop-color="#feffff" stop-opacity="1"/>
		</linearGradient>
	</defs>
	<g>
		<title>Level 2</title>
		<g id="shape5-1" transform="translate(56.6929,-360.85)">
			<title>Document</title>
			<desc>{ ‘action’ : ‘refresh’, ‘data’ : List[DashboardItem(s)] }</desc>
			<path d="M73.8 530.08 L110.69 546.38 L73.8 546.38 L73.8 530.08 ZM0 530.08 L0 595.28 L110.69 595.28 L110.69 546.38 L73.8
						 546.38 L73.8 530.08 L0 530.08 Z" class="st1"/>
			<text x="2" y="555.58" class="st2">{ <tspan x="11.23" dy="1.2em" class="st3">action</tspan>’ : ‘refresh’,<tspan
						x="11.23" dy="1.2em" class="st3">data</tspan>’ : List[DashboardItem(s)]<tspan x="2" dy="1.2em" class="st3">}</tspan></text>		</g>
		<g id="shape6-7" transform="translate(212.598,-360.85)">
			<title>Document.6</title>
			<desc>{ ‘action’ : ‘create’, ‘data’ : DashboardItem }</desc>
			<path d="M73.8 530.08 L110.69 546.38 L73.8 546.38 L73.8 530.08 ZM0 530.08 L0 595.28 L110.69 595.28 L110.69 546.38 L73.8
						 546.38 L73.8 530.08 L0 530.08 Z" class="st4"/>
			<text x="2" y="555.58" class="st2">{ <tspan x="11.23" dy="1.2em" class="st3">action</tspan>’ : ‘create’,<tspan
						x="11.23" dy="1.2em" class="st3">data</tspan>’ : DashboardItem<tspan x="2" dy="1.2em" class="st3">}</tspan></text>		</g>
		<g id="shape7-13" transform="translate(390.945,-360.85)">
			<title>Document.7</title>
			<desc>{ ‘action’ : ‘update’, ‘data’ : DashboardItem }</desc>
			<path d="M73.8 530.08 L110.69 546.38 L73.8 546.38 L73.8 530.08 ZM0 530.08 L0 595.28 L110.69 595.28 L110.69 546.38 L73.8
						 546.38 L73.8 530.08 L0 530.08 Z" class="st5"/>
			<text x="2" y="555.58" class="st2">{ <tspan x="11.23" dy="1.2em" class="st3">action</tspan>’ : ‘update’,<tspan
						x="11.23" dy="1.2em" class="st3">data</tspan>’ : DashboardItem<tspan x="2" dy="1.2em" class="st3">}</tspan></text>		</g>
		<g id="shape8-19" transform="translate(581.102,-360.85)">
			<title>Document.8</title>
			<desc>{ ‘action’ : ‘refresh’, ‘data’ : item_id }</desc>
			<path d="M73.8 530.08 L110.69 546.38 L73.8 546.38 L73.8 530.08 ZM0 530.08 L0 595.28 L110.69 595.28 L110.69 546.38 L73.8
						 546.38 L73.8 530.08 L0 530.08 Z" class="st6"/>
			<text x="2" y="555.58" class="st2">{ <tspan x="11.23" dy="1.2em" class="st3">action</tspan>’ : ‘refresh’,<tspan
						x="11.23" dy="1.2em" class="st3">data</tspan>’ : item_id<tspan x="2" dy="1.2em" class="st3">}</tspan></text>		</g>
		<g id="shape10-25" transform="translate(35.4331,-447.307)">
			<title>Sheet.10</title>
			<desc>GET</desc>
			<g id="shape11-26" transform="translate(212.598,-435.26)">
				<title>Sheet.11</title>
				<desc>POST</desc>
				<rect x="0" y="574.016" width="85.0394" height="21.2598" class="st7"/>
				<text x="-7.96" y="1035.55" class="st8">POST </text>			</g>
			<g id="shape12-29" transform="translate(378.425,-447.307)">
				<title>Sheet.12</title>
				<desc>PATCH</desc>
				<rect x="0" y="590.74" width="103.465" height="4.53543" class="st7"/>
				<text x="-3.16" y="1043.92" class="st9">PATCH </text>			</g>
			<g id="shape13-32" transform="translate(572.669,-447.307)">
				<title>Sheet.13</title>
				<desc>DELETE</desc>
				<rect x="0" y="590.173" width="127.559" height="5.10236" class="st7"/>
				<text x="7.37" y="1043.63" class="st10">DELETE </text>			</g>
			<g id="shape14-35" transform="translate(35.4331,-534.756)">
				<title>Sheet.14</title>
				<desc>Level 2 Diagrams</desc>
				<rect x="0" y="552.756" width="195.591" height="42.5197" class="st11"/>
				<text x="-29.55" y="1028.52" class="st12">Level 2 Diagrams</text>			</g>
			<g id="shape15-38" transform="translate(56.6929,-483.307)">
				<title>Sheet.15</title>
				<desc>Web socket responses</desc>
				<rect x="0" y="566.362" width="223.37" height="28.9134" class="st13"/>
				<text x="-14.41" y="1033.53" class="st14">Web socket responses</text>			</g>
			<g id="shape17-43" transform="translate(67.4646,-289.984)">
				<title>Sheet.17</title>
				<desc>API Endpoints</desc>
				<rect x="0" y="562.677" width="230.173" height="32.5984" class="st15"/>
				<text x="42.12" y="1029.88" class="st16">API Endpoints</text>			</g>
			<g id="group19-48" transform="translate(53.9103,-124.597)">
				<title>Component</title>
				<g id="shape20-49" transform="translate(12.6,0)">
					<title>Sheet.20</title>
					<rect x="0" y="491.272" width="75.7086" height="104.003" class="st1"/>
				</g>
				<g id="shape21-51" transform="translate(0,-65.002)">
					<title>Sheet.21</title>
					<rect x="0" y="569.275" width="25.2" height="26.0008" class="st1"/>
				</g>
				<g id="shape22-53" transform="translate(0,-13.0004)">
					<title>Sheet.22</title>
					<rect x="0" y="569.275" width="25.2" height="26.0008" class="st1"/>
				</g>
				<g id="shape23-55" transform="translate(25.2,0)">
					<title>Sheet.23</title>
					<desc>URL: Hostname/ Data: [ { name, url, protocol, port }, {…}, …{...</desc>
					<rect x="0" y="491.272" width="63.1086" height="104.003" class="st1"/>
					<text x="-31.43" y="949.78" class="st2">URL: Hostname/ <tspan x="-31.43" dy="1.2em" class="st3">Data:</tspan><tspan
								x="-31.43" dy="1.2em" class="st3">[ </tspan><tspan x="-31.43" dy="1.2em" class="st3">  </tspan>{ <tspan
								x="-31.43" dy="1.2em" class="st3">    </tspan>name,  <tspan x="-31.43" dy="1.2em" class="st3">    </tspan>url, <tspan
								x="-31.43" dy="1.2em" class="st3">    </tspan>protocol, <tspan x="-31.43" dy="1.2em" class="st3">    </tspan>port<tspan
								x="-31.43" dy="1.2em" class="st3">  </tspan>}, <tspan x="-31.43" dy="1.2em" class="st3">{…}, …{...} ]</tspan></text>				</g>
			</g>
			<g id="shape29-67" transform="translate(24.4724,-240.26)">
				<title>Sheet.29</title>
				<desc>GET</desc>
				<g id="group30-68" transform="translate(201.968,-134.197)">
					<title>Component.30</title>
					<g id="shape31-69" transform="translate(12.6,0)">
						<title>Sheet.31</title>
						<rect x="0" y="510.472" width="102.661" height="84.8033" class="st4"/>
					</g>
					<g id="shape32-71" transform="translate(0,-53.0021)">
						<title>Sheet.32</title>
						<rect x="0" y="574.075" width="25.2" height="21.2008" class="st4"/>
					</g>
					<g id="shape33-73" transform="translate(0,-10.6004)">
						<title>Sheet.33</title>
						<rect x="0" y="574.075" width="25.2" height="21.2008" class="st4"/>
					</g>
					<g id="shape34-75" transform="translate(25.2,0)">
						<title>Sheet.34</title>
						<desc>URL: Hostname/addsite/ Data: { name, url, protocol, port }</desc>
						<rect x="0" y="510.472" width="90.0613" height="84.8033" class="st4"/>
						<text x="-55.91" y="1209.24" class="st2">URL: Hostname/addsite/<tspan x="-55.91" dy="1.2em" class="st3">Data:</tspan><tspan
									x="-55.91" dy="1.2em" class="st3">{ </tspan><tspan x="-55.91" dy="1.2em" class="st3">  </tspan>name,  <tspan
									x="-55.91" dy="1.2em" class="st3">  </tspan>url, <tspan x="-55.91" dy="1.2em" class="st3">  </tspan>protocol, <tspan
									x="-55.91" dy="1.2em" class="st3">  </tspan>port<tspan x="-55.91" dy="1.2em" class="st3">}</tspan></text>					</g>
				</g>
				<g id="group35-85" transform="translate(368.751,-124.597)">
					<title>Component.35</title>
					<g id="shape36-86" transform="translate(12.6,0)">
						<title>Sheet.36</title>
						<rect x="0" y="491.272" width="142.481" height="104.003" class="st5"/>
					</g>
					<g id="shape37-88" transform="translate(0,-65.002)">
						<title>Sheet.37</title>
						<rect x="0" y="569.275" width="25.2" height="26.0008" class="st5"/>
					</g>
					<g id="shape38-90" transform="translate(0,-13.0004)">
						<title>Sheet.38</title>
						<rect x="0" y="569.275" width="25.2" height="26.0008" class="st5"/>
					</g>
					<g id="shape39-92" transform="translate(25.2,0)">
						<title>Sheet.39</title>
						<desc>URL: Hostname/update/{website_id} Data: { name*, url*, protoc...</desc>
						<rect x="0" y="491.272" width="129.881" height="104.003" class="st5"/>
						<text x="-55.91" y="1190.04" class="st2">URL: Hostname/update/{website_id}<tspan x="-55.91" dy="1.2em"
									class="st3">Data:</tspan><tspan x="-55.91" dy="1.2em" class="st3">{ </tspan><tspan x="-55.91"
									dy="1.2em" class="st3">  </tspan>name*,  <tspan x="-55.91" dy="1.2em" class="st3">  </tspan>url*,<tspan
									x="-55.91" dy="1.2em" class="st3">  </tspan>protocol*, <tspan x="-55.91" dy="1.2em" class="st3">  </tspan>port*<tspan
									x="-55.91" dy="1.2em" class="st3">}  </tspan><tspan x="-55.91" dy="2.4em" class="st3">*All fields optional</tspan></text>					</g>
				</g>
				<g id="group40-103" transform="translate(556.664,-158.598)">
					<title>Component.40</title>
					<g id="shape41-104" transform="translate(12.6,0)">
						<title>Sheet.41</title>
						<rect x="0" y="559.276" width="140.039" height="36" class="st6"/>
					</g>
					<g id="shape42-106" transform="translate(0,-22.5)">
						<title>Sheet.42</title>
						<rect x="0" y="586.276" width="25.2" height="9" class="st6"/>
					</g>
					<g id="shape43-108" transform="translate(0,-4.5)">
						<title>Sheet.43</title>
						<rect x="0" y="586.276" width="25.2" height="9" class="st6"/>
					</g>
					<g id="shape44-110" transform="translate(25.2,0)">
						<title>Sheet.44</title>
						<desc>URL: Hostname/delete/{website_id}</desc>
						<rect x="0" y="559.276" width="127.439" height="36" class="st6"/>
						<text x="-55.91" y="1262.44" class="st2">URL: Hostname/delete/{website_id}</text>					</g>
				</g>
				<g id="shape45-113" transform="translate(217.079,-230.457)">
					<title>Sheet.45</title>
					<desc>POST</desc>
					<rect x="0" y="574.016" width="85.0394" height="21.2598" class="st7"/>
					<text x="-32.44" y="1275.81" class="st8">POST </text>				</g>
				<g id="shape46-116" transform="translate(388.661,-240.26)">
					<title>Sheet.46</title>
					<desc>PATCH</desc>
					<rect x="0" y="590.74" width="103.465" height="4.53543" class="st7"/>
					<text x="-27.64" y="1284.17" class="st9">PATCH </text>				</g>
				<g id="shape47-119" transform="translate(564.236,-240.26)">
					<title>Sheet.47</title>
					<desc>DELETE</desc>
					<rect x="0" y="590.173" width="127.559" height="5.10236" class="st7"/>
					<text x="-17.1" y="1283.89" class="st10">DELETE </text>				</g>
			</g>
</svg>
